<mxfile host="app.diagrams.net" agent="Mozilla/5.0 (Windows NT 10.0; Win64; x64) AppleWebKit/537.36 (KHTML, like Gecko) Chrome/132.0.0.0 Safari/537.36" version="26.0.10">
  <diagram id="C5RBs43oDa-KdzZeNtuy" name="Page-1">
    <mxGraphModel dx="1909" dy="785" grid="0" gridSize="10" guides="1" tooltips="1" connect="1" arrows="1" fold="1" page="0" pageScale="1" pageWidth="827" pageHeight="1169" math="0" shadow="0">
      <root>
        <mxCell id="WIyWlLk6GJQsqaUBKTNV-0" />
        <mxCell id="WIyWlLk6GJQsqaUBKTNV-1" parent="WIyWlLk6GJQsqaUBKTNV-0" />
        <mxCell id="HBGK9ivZfa8sCWJM4-zr-13" value="Empesa" style="swimlane;whiteSpace=wrap;html=1;" parent="WIyWlLk6GJQsqaUBKTNV-1" vertex="1">
          <mxGeometry x="400" y="90" width="200" height="50" as="geometry" />
        </mxCell>
        <mxCell id="HBGK9ivZfa8sCWJM4-zr-14" value="hístóricos de operações" style="text;html=1;align=center;verticalAlign=middle;resizable=0;points=[];autosize=1;strokeColor=none;fillColor=none;" parent="HBGK9ivZfa8sCWJM4-zr-13" vertex="1">
          <mxGeometry x="25" y="20" width="150" height="30" as="geometry" />
        </mxCell>
        <mxCell id="HBGK9ivZfa8sCWJM4-zr-16" value="RH" style="swimlane;fontStyle=0;childLayout=stackLayout;horizontal=1;startSize=30;horizontalStack=0;resizeParent=1;resizeParentMax=0;resizeLast=0;collapsible=1;marginBottom=0;whiteSpace=wrap;html=1;" parent="WIyWlLk6GJQsqaUBKTNV-1" vertex="1">
          <mxGeometry x="-20" y="270" width="270" height="160" as="geometry" />
        </mxCell>
        <mxCell id="HBGK9ivZfa8sCWJM4-zr-18" value="nome do funcionário do RH :ArrayList&lt;div&gt;&lt;br&gt;&lt;/div&gt;&lt;div&gt;operações com funcionários : Integer&lt;/div&gt;&lt;div&gt;&lt;br&gt;&lt;/div&gt;&lt;div&gt;&lt;span style=&quot;text-wrap-mode: nowrap;&quot;&gt;1 -cadastrar funcionários&lt;/span&gt;&lt;div style=&quot;text-wrap-mode: nowrap;&quot;&gt;2- consultar funcionários&lt;/div&gt;&lt;div style=&quot;text-wrap-mode: nowrap;&quot;&gt;3 - alterar informações do funcionário&lt;/div&gt;&lt;div style=&quot;text-wrap-mode: nowrap;&quot;&gt;4 - remover Funcionário&lt;/div&gt;&lt;/div&gt;" style="text;strokeColor=none;fillColor=none;align=center;verticalAlign=middle;spacingLeft=4;spacingRight=4;overflow=hidden;points=[[0,0.5],[1,0.5]];portConstraint=eastwest;rotatable=0;whiteSpace=wrap;html=1;" parent="HBGK9ivZfa8sCWJM4-zr-16" vertex="1">
          <mxGeometry y="30" width="270" height="130" as="geometry" />
        </mxCell>
        <mxCell id="HBGK9ivZfa8sCWJM4-zr-21" value="" style="endArrow=diamondThin;endFill=1;endSize=24;html=1;rounded=0;entryX=0;entryY=0.5;entryDx=0;entryDy=0;exitX=0.5;exitY=0;exitDx=0;exitDy=0;" parent="WIyWlLk6GJQsqaUBKTNV-1" edge="1" target="HBGK9ivZfa8sCWJM4-zr-13" source="HBGK9ivZfa8sCWJM4-zr-16">
          <mxGeometry width="160" relative="1" as="geometry">
            <mxPoint x="120" y="260" as="sourcePoint" />
            <mxPoint x="390" y="160" as="targetPoint" />
            <Array as="points">
              <mxPoint x="120" y="120" />
            </Array>
          </mxGeometry>
        </mxCell>
        <mxCell id="HBGK9ivZfa8sCWJM4-zr-26" value="instrutor" style="swimlane;fontStyle=0;childLayout=stackLayout;horizontal=1;startSize=30;horizontalStack=0;resizeParent=1;resizeParentMax=0;resizeLast=0;collapsible=1;marginBottom=0;whiteSpace=wrap;html=1;" parent="WIyWlLk6GJQsqaUBKTNV-1" vertex="1">
          <mxGeometry x="365" y="320" width="270" height="90" as="geometry" />
        </mxCell>
        <mxCell id="HBGK9ivZfa8sCWJM4-zr-28" value="nome: str&lt;div&gt;salario: float&lt;/div&gt;&lt;div&gt;email:str&lt;/div&gt;" style="text;html=1;align=center;verticalAlign=middle;resizable=0;points=[];autosize=1;strokeColor=none;fillColor=none;" parent="HBGK9ivZfa8sCWJM4-zr-26" vertex="1">
          <mxGeometry y="30" width="270" height="60" as="geometry" />
        </mxCell>
        <mxCell id="wQu3CXd4yHBSkO7MjP9a-3" value="" style="endArrow=diamondThin;endFill=1;endSize=24;html=1;rounded=0;exitX=0.5;exitY=0;exitDx=0;exitDy=0;" edge="1" parent="WIyWlLk6GJQsqaUBKTNV-1" source="HBGK9ivZfa8sCWJM4-zr-26" target="HBGK9ivZfa8sCWJM4-zr-14">
          <mxGeometry width="160" relative="1" as="geometry">
            <mxPoint x="496" y="306.01" as="sourcePoint" />
            <mxPoint x="504" y="-70" as="targetPoint" />
            <Array as="points" />
          </mxGeometry>
        </mxCell>
        <mxCell id="wQu3CXd4yHBSkO7MjP9a-8" value="funcionário" style="swimlane;fontStyle=0;childLayout=stackLayout;horizontal=1;startSize=30;horizontalStack=0;resizeParent=1;resizeParentMax=0;resizeLast=0;collapsible=1;marginBottom=0;whiteSpace=wrap;html=1;" vertex="1" parent="WIyWlLk6GJQsqaUBKTNV-1">
          <mxGeometry x="760" y="310" width="270" height="90" as="geometry" />
        </mxCell>
        <mxCell id="wQu3CXd4yHBSkO7MjP9a-9" value="nome: str&lt;div&gt;salário : float&lt;br&gt;&lt;div&gt;tempo de contrato : int&lt;/div&gt;&lt;/div&gt;" style="text;html=1;align=center;verticalAlign=middle;resizable=0;points=[];autosize=1;strokeColor=none;fillColor=none;" vertex="1" parent="wQu3CXd4yHBSkO7MjP9a-8">
          <mxGeometry y="30" width="270" height="60" as="geometry" />
        </mxCell>
        <mxCell id="wQu3CXd4yHBSkO7MjP9a-10" value="1" style="endArrow=open;html=1;endSize=12;startArrow=diamondThin;startSize=14;startFill=0;edgeStyle=orthogonalEdgeStyle;align=left;verticalAlign=bottom;rounded=0;exitX=0.344;exitY=1.008;exitDx=0;exitDy=0;exitPerimeter=0;entryX=0.537;entryY=0.983;entryDx=0;entryDy=0;entryPerimeter=0;" edge="1" parent="WIyWlLk6GJQsqaUBKTNV-1" source="HBGK9ivZfa8sCWJM4-zr-18" target="wQu3CXd4yHBSkO7MjP9a-9">
          <mxGeometry x="-1" y="3" relative="1" as="geometry">
            <mxPoint x="330" y="480" as="sourcePoint" />
            <mxPoint x="490" y="480" as="targetPoint" />
            <Array as="points">
              <mxPoint x="73" y="650" />
              <mxPoint x="905" y="650" />
            </Array>
          </mxGeometry>
        </mxCell>
        <mxCell id="wQu3CXd4yHBSkO7MjP9a-11" value="1" style="endArrow=open;html=1;endSize=12;startArrow=diamondThin;startSize=14;startFill=0;edgeStyle=orthogonalEdgeStyle;align=left;verticalAlign=bottom;rounded=0;exitX=1;exitY=0.5;exitDx=0;exitDy=0;entryX=-0.004;entryY=0.517;entryDx=0;entryDy=0;entryPerimeter=0;" edge="1" parent="WIyWlLk6GJQsqaUBKTNV-1" source="HBGK9ivZfa8sCWJM4-zr-18" target="HBGK9ivZfa8sCWJM4-zr-28">
          <mxGeometry x="-1" y="3" relative="1" as="geometry">
            <mxPoint x="83" y="441" as="sourcePoint" />
            <mxPoint x="835" y="419" as="targetPoint" />
            <Array as="points">
              <mxPoint x="330" y="365" />
              <mxPoint x="330" y="381" />
            </Array>
          </mxGeometry>
        </mxCell>
        <mxCell id="wQu3CXd4yHBSkO7MjP9a-12" value="1" style="endArrow=open;html=1;endSize=12;startArrow=diamondThin;startSize=14;startFill=0;edgeStyle=orthogonalEdgeStyle;align=left;verticalAlign=bottom;rounded=0;exitX=1;exitY=0.5;exitDx=0;exitDy=0;entryX=-0.004;entryY=0.517;entryDx=0;entryDy=0;entryPerimeter=0;" edge="1" parent="WIyWlLk6GJQsqaUBKTNV-1">
          <mxGeometry x="-1" y="3" relative="1" as="geometry">
            <mxPoint x="646" y="359" as="sourcePoint" />
            <mxPoint x="760" y="375" as="targetPoint" />
            <Array as="points">
              <mxPoint x="726" y="359" />
              <mxPoint x="726" y="375" />
            </Array>
          </mxGeometry>
        </mxCell>
        <mxCell id="wQu3CXd4yHBSkO7MjP9a-13" value="" style="endArrow=diamondThin;endFill=1;endSize=24;html=1;rounded=0;entryX=1;entryY=0.5;entryDx=0;entryDy=0;" edge="1" parent="WIyWlLk6GJQsqaUBKTNV-1" target="HBGK9ivZfa8sCWJM4-zr-13">
          <mxGeometry width="160" relative="1" as="geometry">
            <mxPoint x="910" y="310" as="sourcePoint" />
            <mxPoint x="514" y="150" as="targetPoint" />
            <Array as="points">
              <mxPoint x="910" y="120" />
            </Array>
          </mxGeometry>
        </mxCell>
        <mxCell id="wQu3CXd4yHBSkO7MjP9a-14" value="Alyson Pereira" style="text;html=1;align=center;verticalAlign=middle;whiteSpace=wrap;rounded=0;strokeWidth=5;fontSize=18;" vertex="1" parent="WIyWlLk6GJQsqaUBKTNV-1">
          <mxGeometry x="1080" y="260" width="130" height="40" as="geometry" />
        </mxCell>
        <mxCell id="wQu3CXd4yHBSkO7MjP9a-16" value="Renan Gabriel" style="text;html=1;align=center;verticalAlign=middle;whiteSpace=wrap;rounded=0;strokeWidth=5;fontSize=18;" vertex="1" parent="WIyWlLk6GJQsqaUBKTNV-1">
          <mxGeometry x="1075.5" y="307" width="139" height="40" as="geometry" />
        </mxCell>
      </root>
    </mxGraphModel>
  </diagram>
</mxfile>
